<svg width="19" height="15" viewBox="0 0 19 15" fill="none" xmlns="http://www.w3.org/2000/svg">
<path d="M16.0843 1.22347C14.8733 0.657179 13.5747 0.239961 12.2169 0.0010024C12.1922 -0.00360942 12.1675 0.00791576 12.1548 0.0309667C11.9877 0.333697 11.8027 0.728633 11.6732 1.03905C10.2128 0.816233 8.75994 0.816233 7.3295 1.03905C7.19993 0.721733 7.00822 0.333697 6.84046 0.0309667C6.82772 0.00868485 6.80302 -0.00284033 6.77829 0.0010024C5.42126 0.239197 4.12265 0.656415 2.91091 1.22347C2.90042 1.22808 2.89143 1.23577 2.88546 1.24575C0.422268 4.99613 -0.252502 8.65433 0.0785176 12.2672C0.0800154 12.2849 0.0897511 12.3018 0.103232 12.3125C1.72837 13.5288 3.3026 14.2672 4.8476 14.7567C4.87232 14.7644 4.89852 14.7551 4.91426 14.7344C5.27973 14.2257 5.60551 13.6894 5.88484 13.1254C5.90132 13.0924 5.88558 13.0532 5.85189 13.0401C5.33515 12.8404 4.8431 12.5968 4.36979 12.3202C4.33235 12.2979 4.32935 12.2433 4.36379 12.2172C4.46339 12.1412 4.56302 12.062 4.65813 11.9821C4.67534 11.9675 4.69932 11.9644 4.71955 11.9736C7.82902 13.4205 11.1954 13.4205 14.2682 11.9736C14.2884 11.9637 14.3124 11.9667 14.3303 11.9813C14.4255 12.0612 14.5251 12.1412 14.6254 12.2172C14.6599 12.2433 14.6576 12.2979 14.6202 12.3202C14.1469 12.6022 13.6548 12.8404 13.1373 13.0394C13.1036 13.0524 13.0886 13.0924 13.1051 13.1254C13.3905 13.6886 13.7162 14.225 14.075 14.7336C14.0899 14.7551 14.1169 14.7644 14.1416 14.7567C15.6941 14.2672 17.2683 13.5288 18.8935 12.3125C18.9077 12.3018 18.9167 12.2856 18.9182 12.2679C19.3144 8.0911 18.2546 4.4629 16.109 1.24652C16.1038 1.23577 16.0948 1.22808 16.0843 1.22347ZM6.34918 10.0673C5.41302 10.0673 4.64165 9.19141 4.64165 8.1157C4.64165 7.03998 5.39806 6.16406 6.34918 6.16406C7.30777 6.16406 8.07168 7.04767 8.0567 8.1157C8.0567 9.19141 7.30028 10.0673 6.34918 10.0673ZM12.6625 10.0673C11.7264 10.0673 10.955 9.19141 10.955 8.1157C10.955 7.03998 11.7114 6.16406 12.6625 6.16406C13.6211 6.16406 14.385 7.04767 14.37 8.1157C14.37 9.19141 13.6211 10.0673 12.6625 10.0673Z" fill="#262626"/>
</svg>
