<svg width="12" height="12" viewBox="0 0 12 12" fill="none" xmlns="http://www.w3.org/2000/svg">
	<path
		d="M10.2222 1.63758C9.14893 0.657024 7.81395 0.166748 6.21966 0.166748C4.54373 0.166748 3.11511 0.723664 1.93619 1.83987C0.757283 2.95609 0.166626 4.34362 0.166626 6.00484C0.166626 7.59705 0.72847 8.96554 1.84976 10.1127C2.97585 11.2598 4.4885 11.8334 6.39253 11.8334C7.54023 11.8334 8.66632 11.6002 9.7708 11.1313C10.131 10.979 10.3062 10.5696 10.1598 10.2103C10.0085 9.83899 9.58112 9.66763 9.20895 9.82471C8.24854 10.2341 7.30733 10.4387 6.39013 10.4387C4.9303 10.4387 3.7994 9.99845 2.99746 9.11548C2.19791 8.23488 1.79693 7.19959 1.79693 6.01198C1.79693 4.72203 2.22672 3.64628 3.08389 2.78235C3.93866 1.92079 4.99272 1.48764 6.24126 1.48764C7.39136 1.48764 8.36379 1.84225 9.15613 2.55149C9.94848 3.26072 10.3446 4.15322 10.3446 5.22897C10.3446 5.96438 10.1622 6.57842 9.79961 7.06631C9.43705 7.55659 9.06009 7.79935 8.66872 7.79935C8.45743 7.79935 8.35178 7.68749 8.35178 7.46139C8.35178 7.27813 8.36619 7.06393 8.3926 6.81642L8.83919 3.19646H7.30253L7.20408 3.55108C6.81271 3.23454 6.38293 3.07509 5.91712 3.07509C5.1776 3.07509 4.54373 3.36782 4.0179 3.95092C3.48967 4.53401 3.22796 5.28609 3.22796 6.20476C3.22796 7.10201 3.46086 7.82791 3.92906 8.37768C4.39726 8.92984 4.95911 9.20354 5.61699 9.20354C6.20525 9.20354 6.70707 8.9584 7.12485 8.4705C7.43939 8.93936 7.90279 9.1726 8.51505 9.1726C9.41544 9.1726 10.1934 8.78466 10.8489 8.00641C11.5044 7.23053 11.8333 6.29282 11.8333 5.19565C11.8333 3.80574 11.2979 2.61813 10.2222 1.63758ZM6.68306 7.11391C6.41174 7.47567 6.0876 7.65893 5.71063 7.65893C5.45372 7.65893 5.24723 7.52565 5.09117 7.25909C4.9327 6.99253 4.85346 6.66172 4.85346 6.26426C4.85346 5.77398 4.96391 5.37891 5.18481 5.07903C5.4057 4.77915 5.67942 4.62683 6.00596 4.62683C6.28929 4.62683 6.5414 4.73869 6.76229 4.96479C6.98319 5.19089 7.09364 5.49077 7.09364 5.8668C7.09123 6.33566 6.95437 6.74978 6.68306 7.11391Z"
		fill="#262626"/>
</svg>
