<svg width="16" height="12" viewBox="0 0 16 12" fill="none" xmlns="http://www.w3.org/2000/svg">
	<path
		d="M14.3031 1.53789L15.5 0.412976V0.166748H11.3537L8.39875 7.39271L5.03687 0.166748H0.689375V0.412976L2.0875 2.06657C2.22375 2.18877 2.295 2.36745 2.27688 2.54736V9.0457C2.32 9.27964 2.2425 9.52035 2.075 9.69043L0.5 11.5657V11.8089H4.96562V11.5626L3.39062 9.69043C3.22 9.51973 3.13937 9.28333 3.17375 9.0457V3.42482L7.09375 11.8119H7.54938L10.92 3.42482V10.1061C10.92 10.2824 10.92 10.3186 10.8025 10.434L9.59 11.5866V11.8334H15.4725V11.5872L14.3038 10.4629C14.2013 10.3867 14.1481 10.259 14.17 10.135V1.86578C14.1481 1.74113 14.2006 1.61341 14.3031 1.53789Z"
		fill="#262626"/>
</svg>
