<svg width="14" height="12" viewBox="0 0 14 12" fill="none" xmlns="http://www.w3.org/2000/svg">
	<path
		d="M0.56888 5.76087L3.64115 6.91325L4.83031 10.7566C4.9064 11.0027 5.20591 11.0937 5.40471 10.9304L7.11724 9.52735C7.29675 9.38035 7.55244 9.37303 7.74004 9.50988L10.8288 11.7636C11.0415 11.9189 11.3428 11.8018 11.3961 11.5436L13.6589 0.605341C13.7171 0.323232 13.4413 0.0878892 13.174 0.191782L0.56528 5.08003C0.254124 5.20063 0.256835 5.64336 0.56888 5.76087ZM4.63866 6.29981L10.643 2.58331C10.7509 2.51672 10.862 2.66336 10.7693 2.74974L5.81395 7.37889C5.63978 7.54183 5.52742 7.75988 5.4956 7.99657L5.3268 9.25373C5.30444 9.42158 5.06982 9.43824 5.02373 9.27579L4.37453 6.98333C4.30017 6.72185 4.40853 6.44256 4.63866 6.29981Z"
		fill="#262626"/>
</svg>
