<svg width="14" height="12" viewBox="0 0 14 12" fill="none" xmlns="http://www.w3.org/2000/svg">
	<path fill-rule="evenodd" clip-rule="evenodd"
		  d="M4.52671 11.8334C9.55804 11.8334 12.31 7.34441 12.31 3.45198C12.31 3.3242 12.31 3.19713 12.302 3.07078C12.8374 2.6544 13.2994 2.13751 13.6667 1.54597C13.168 1.78431 12.638 1.94081 12.096 2.00973C12.6667 1.64145 13.094 1.06282 13.2987 0.380104C12.7614 0.723258 12.174 0.965189 11.5614 1.09513C10.5254 -0.0908359 8.79271 -0.148268 7.69071 0.967343C6.98071 1.68667 6.67871 2.75921 6.89937 3.78221C4.70004 3.66304 2.65071 2.54456 1.26137 0.704593C0.535374 2.05065 0.906707 3.77216 2.10871 4.63651C1.67337 4.62287 1.24737 4.49652 0.866707 4.26823V4.30556C0.867374 5.70761 1.78537 6.91511 3.06137 7.19294C2.65871 7.31139 2.23604 7.32862 1.82671 7.24319C2.18471 8.44351 3.21204 9.2655 4.38204 9.28919C3.41337 10.109 2.21671 10.5541 0.984707 10.5527C0.767374 10.552 0.550041 10.5383 0.333374 10.5103C1.58471 11.3747 3.04004 11.8334 4.52671 11.8313"
		  fill="#262626"/>
</svg>
