<svg width="18" height="12" viewBox="0 0 18 12" fill="none" xmlns="http://www.w3.org/2000/svg">
	<path
		d="M16.6837 1.16813C16.0821 0.456787 14.9713 0.166626 12.85 0.166626H5.14974C2.97991 0.166626 1.85034 0.475504 1.25098 1.23283C0.666626 1.97123 0.666626 3.0592 0.666626 4.56498V7.43499C0.666626 10.3522 1.35996 11.8333 5.14974 11.8333H12.8501C14.6896 11.8333 15.709 11.5773 16.3685 10.9495C17.0447 10.3057 17.3333 9.25468 17.3333 7.43499V4.56498C17.3333 2.97701 17.2881 1.88262 16.6837 1.16813ZM11.3667 6.39622L7.87001 8.21392C7.79184 8.25457 7.70636 8.27473 7.62098 8.27473C7.52431 8.27473 7.42786 8.24884 7.34243 8.1974C7.18157 8.10045 7.08335 7.92702 7.08335 7.73997V4.11621C7.08335 3.92947 7.1813 3.75621 7.34184 3.6592C7.50243 3.5622 7.70216 3.55557 7.86878 3.64166L11.3654 5.44766C11.5433 5.53953 11.6551 5.72221 11.6553 5.92151C11.6556 6.12098 11.5443 6.30392 11.3667 6.39622Z"
		fill="#262626"/>
</svg>
