<svg width="28" height="16" viewBox="0 0 28 16" fill="none" xmlns="http://www.w3.org/2000/svg">
<path d="M20.1834 1.35001C19.7284 0.895007 18.9934 0.895007 18.5384 1.35001L11.9584 7.93001L13.6034 9.57501L20.1834 2.98334C20.6267 2.54001 20.6267 1.79334 20.1834 1.35001ZM25.13 1.33834L13.6034 12.865L9.54337 8.81667C9.08837 8.36167 8.35337 8.36167 7.89837 8.81667C7.44337 9.27167 7.44337 10.0067 7.89837 10.4617L12.775 15.3383C13.23 15.7933 13.965 15.7933 14.42 15.3383L26.775 2.99501C27.23 2.54001 27.23 1.80501 26.775 1.35001H26.7634C26.32 0.883341 25.585 0.883341 25.13 1.33834ZM1.3067 10.4733L6.18337 15.35C6.63837 15.805 7.37337 15.805 7.82837 15.35L8.64504 14.5333L2.9517 8.81667C2.4967 8.36167 1.7617 8.36167 1.3067 8.81667C0.851704 9.27167 0.851704 10.0183 1.3067 10.4733Z" fill="#262626"/>
</svg>
